<mxfile host="app.diagrams.net" modified="2023-01-15T04:25:14.391Z" agent="5.0 (Windows NT 10.0; WOW64) AppleWebKit/537.36 (KHTML, like Gecko) Chrome/102.0.0.0 Safari/537.36" version="20.8.3" etag="hH20ykNZXVUkD5Kmkh-h" type="github">
  <diagram id="y8hk2NV0odpmIzNBS5Js" name="第 1 页">
    <mxGraphModel dx="1180" dy="720" grid="1" gridSize="10" guides="1" tooltips="1" connect="1" arrows="1" fold="1" page="1" pageScale="1" pageWidth="827" pageHeight="1169" math="0" shadow="0">
      <root>
        <mxCell id="0" />
        <mxCell id="1" parent="0" />
        <mxCell id="tH6fP_ZQo3fSNL9pGHCD-81" value="" style="swimlane;startSize=0;strokeWidth=2;" vertex="1" parent="1">
          <mxGeometry x="127" y="533" width="280" height="200" as="geometry">
            <mxRectangle x="120" y="280" width="50" height="40" as="alternateBounds" />
          </mxGeometry>
        </mxCell>
        <mxCell id="tH6fP_ZQo3fSNL9pGHCD-82" value="" style="group;rotation=40;" vertex="1" connectable="0" parent="tH6fP_ZQo3fSNL9pGHCD-81">
          <mxGeometry x="142" y="103" width="20" height="30" as="geometry" />
        </mxCell>
        <mxCell id="tH6fP_ZQo3fSNL9pGHCD-83" value="" style="ellipse;whiteSpace=wrap;html=1;aspect=fixed;fillColor=#FF66B3;rotation=40;" vertex="1" parent="tH6fP_ZQo3fSNL9pGHCD-82">
          <mxGeometry x="15" y="6" width="10" height="10" as="geometry" />
        </mxCell>
        <mxCell id="tH6fP_ZQo3fSNL9pGHCD-84" value="" style="ellipse;whiteSpace=wrap;html=1;aspect=fixed;fillColor=#FF66B3;rotation=40;" vertex="1" parent="tH6fP_ZQo3fSNL9pGHCD-82">
          <mxGeometry x="-10" y="13" width="10" height="10" as="geometry" />
        </mxCell>
        <mxCell id="tH6fP_ZQo3fSNL9pGHCD-85" value="" style="endArrow=none;html=1;rounded=0;startArrow=none;" edge="1" parent="tH6fP_ZQo3fSNL9pGHCD-82" source="tH6fP_ZQo3fSNL9pGHCD-84" target="tH6fP_ZQo3fSNL9pGHCD-83">
          <mxGeometry width="50" height="50" relative="1" as="geometry">
            <mxPoint x="-33" y="51" as="sourcePoint" />
            <mxPoint x="37" y="44" as="targetPoint" />
          </mxGeometry>
        </mxCell>
        <mxCell id="tH6fP_ZQo3fSNL9pGHCD-86" value="" style="group;rotation=40;" vertex="1" connectable="0" parent="tH6fP_ZQo3fSNL9pGHCD-82">
          <mxGeometry x="-10" y="-24" width="20" height="30" as="geometry" />
        </mxCell>
        <mxCell id="tH6fP_ZQo3fSNL9pGHCD-87" value="" style="ellipse;whiteSpace=wrap;html=1;aspect=fixed;fillColor=#FF66B3;rotation=40;" vertex="1" parent="tH6fP_ZQo3fSNL9pGHCD-86">
          <mxGeometry x="15" y="6" width="10" height="10" as="geometry" />
        </mxCell>
        <mxCell id="tH6fP_ZQo3fSNL9pGHCD-88" value="" style="ellipse;whiteSpace=wrap;html=1;aspect=fixed;fillColor=#FF66B3;rotation=40;" vertex="1" parent="tH6fP_ZQo3fSNL9pGHCD-86">
          <mxGeometry x="-5" y="14" width="10" height="10" as="geometry" />
        </mxCell>
        <mxCell id="tH6fP_ZQo3fSNL9pGHCD-89" value="" style="endArrow=none;html=1;rounded=0;startArrow=none;" edge="1" parent="tH6fP_ZQo3fSNL9pGHCD-86" source="tH6fP_ZQo3fSNL9pGHCD-88" target="tH6fP_ZQo3fSNL9pGHCD-87">
          <mxGeometry width="50" height="50" relative="1" as="geometry">
            <mxPoint x="-33" y="51" as="sourcePoint" />
            <mxPoint x="37" y="44" as="targetPoint" />
          </mxGeometry>
        </mxCell>
        <mxCell id="tH6fP_ZQo3fSNL9pGHCD-90" value="" style="group;rotation=20;" vertex="1" connectable="0" parent="tH6fP_ZQo3fSNL9pGHCD-81">
          <mxGeometry x="131" y="62" width="20" height="30" as="geometry" />
        </mxCell>
        <mxCell id="tH6fP_ZQo3fSNL9pGHCD-91" value="" style="ellipse;whiteSpace=wrap;html=1;aspect=fixed;fillColor=#FF66B3;rotation=20;" vertex="1" parent="tH6fP_ZQo3fSNL9pGHCD-90">
          <mxGeometry x="13" y="3" width="10" height="10" as="geometry" />
        </mxCell>
        <mxCell id="tH6fP_ZQo3fSNL9pGHCD-92" value="" style="ellipse;whiteSpace=wrap;html=1;aspect=fixed;fillColor=#FF66B3;rotation=20;" vertex="1" parent="tH6fP_ZQo3fSNL9pGHCD-90">
          <mxGeometry x="-3" y="17" width="10" height="10" as="geometry" />
        </mxCell>
        <mxCell id="tH6fP_ZQo3fSNL9pGHCD-93" value="" style="endArrow=none;html=1;rounded=0;startArrow=none;" edge="1" parent="tH6fP_ZQo3fSNL9pGHCD-90" source="tH6fP_ZQo3fSNL9pGHCD-92" target="tH6fP_ZQo3fSNL9pGHCD-91">
          <mxGeometry width="50" height="50" relative="1" as="geometry">
            <mxPoint x="-18" y="64" as="sourcePoint" />
            <mxPoint x="45" y="33" as="targetPoint" />
          </mxGeometry>
        </mxCell>
        <mxCell id="tH6fP_ZQo3fSNL9pGHCD-94" value="" style="group;rotation=15;" vertex="1" connectable="0" parent="tH6fP_ZQo3fSNL9pGHCD-90">
          <mxGeometry x="-7" y="-17" width="20" height="30" as="geometry" />
        </mxCell>
        <mxCell id="tH6fP_ZQo3fSNL9pGHCD-95" value="" style="ellipse;whiteSpace=wrap;html=1;aspect=fixed;fillColor=#FF66B3;rotation=15;" vertex="1" parent="tH6fP_ZQo3fSNL9pGHCD-94">
          <mxGeometry x="12" y="2" width="10" height="10" as="geometry" />
        </mxCell>
        <mxCell id="tH6fP_ZQo3fSNL9pGHCD-96" value="" style="ellipse;whiteSpace=wrap;html=1;aspect=fixed;fillColor=#FF66B3;rotation=15;" vertex="1" parent="tH6fP_ZQo3fSNL9pGHCD-94">
          <mxGeometry x="-2" y="18" width="10" height="10" as="geometry" />
        </mxCell>
        <mxCell id="tH6fP_ZQo3fSNL9pGHCD-97" value="" style="endArrow=none;html=1;rounded=0;startArrow=none;" edge="1" parent="tH6fP_ZQo3fSNL9pGHCD-94" source="tH6fP_ZQo3fSNL9pGHCD-96" target="tH6fP_ZQo3fSNL9pGHCD-95">
          <mxGeometry width="50" height="50" relative="1" as="geometry">
            <mxPoint x="-14" y="66" as="sourcePoint" />
            <mxPoint x="47" y="30" as="targetPoint" />
          </mxGeometry>
        </mxCell>
        <mxCell id="tH6fP_ZQo3fSNL9pGHCD-98" value="" style="group;rotation=90;" vertex="1" connectable="0" parent="tH6fP_ZQo3fSNL9pGHCD-81">
          <mxGeometry x="112" y="29" width="20" height="30" as="geometry" />
        </mxCell>
        <mxCell id="tH6fP_ZQo3fSNL9pGHCD-99" value="" style="ellipse;whiteSpace=wrap;html=1;aspect=fixed;fillColor=#FF66B3;rotation=0;" vertex="1" parent="tH6fP_ZQo3fSNL9pGHCD-98">
          <mxGeometry x="11" width="10" height="10" as="geometry" />
        </mxCell>
        <mxCell id="tH6fP_ZQo3fSNL9pGHCD-100" value="" style="ellipse;whiteSpace=wrap;html=1;aspect=fixed;fillColor=#FF66B3;rotation=0;" vertex="1" parent="tH6fP_ZQo3fSNL9pGHCD-98">
          <mxGeometry x="-1" y="20" width="10" height="10" as="geometry" />
        </mxCell>
        <mxCell id="tH6fP_ZQo3fSNL9pGHCD-101" value="" style="endArrow=none;html=1;rounded=0;startArrow=none;" edge="1" parent="tH6fP_ZQo3fSNL9pGHCD-98">
          <mxGeometry width="50" height="50" relative="1" as="geometry">
            <mxPoint x="6.572478777155993" y="19.71253537140683" as="sourcePoint" />
            <mxPoint x="13.427521222844007" y="8.287464628593625" as="targetPoint" />
          </mxGeometry>
        </mxCell>
        <mxCell id="tH6fP_ZQo3fSNL9pGHCD-102" value="" style="group;rotation=105;" vertex="1" connectable="0" parent="tH6fP_ZQo3fSNL9pGHCD-81">
          <mxGeometry x="49" y="1" width="20" height="30" as="geometry" />
        </mxCell>
        <mxCell id="tH6fP_ZQo3fSNL9pGHCD-103" value="" style="ellipse;whiteSpace=wrap;html=1;aspect=fixed;fillColor=#FF66B3;rotation=15;" vertex="1" parent="tH6fP_ZQo3fSNL9pGHCD-102">
          <mxGeometry x="69" y="17" width="10" height="10" as="geometry" />
        </mxCell>
        <mxCell id="tH6fP_ZQo3fSNL9pGHCD-104" value="" style="ellipse;whiteSpace=wrap;html=1;aspect=fixed;fillColor=#FF66B3;rotation=15;" vertex="1" parent="tH6fP_ZQo3fSNL9pGHCD-102">
          <mxGeometry x="54" y="33" width="10" height="10" as="geometry" />
        </mxCell>
        <mxCell id="tH6fP_ZQo3fSNL9pGHCD-105" value="" style="endArrow=none;html=1;rounded=0;startArrow=none;" edge="1" parent="tH6fP_ZQo3fSNL9pGHCD-102" source="tH6fP_ZQo3fSNL9pGHCD-104">
          <mxGeometry width="50" height="50" relative="1" as="geometry">
            <mxPoint x="43" y="81" as="sourcePoint" />
            <mxPoint x="72" y="26" as="targetPoint" />
          </mxGeometry>
        </mxCell>
        <mxCell id="tH6fP_ZQo3fSNL9pGHCD-106" value="" style="group;rotation=15;" vertex="1" connectable="0" parent="1">
          <mxGeometry x="262" y="607" width="20" height="30" as="geometry" />
        </mxCell>
        <mxCell id="tH6fP_ZQo3fSNL9pGHCD-107" value="" style="ellipse;whiteSpace=wrap;html=1;aspect=fixed;fillColor=#FF66B3;rotation=15;" vertex="1" parent="tH6fP_ZQo3fSNL9pGHCD-106">
          <mxGeometry x="12" y="2" width="10" height="10" as="geometry" />
        </mxCell>
        <mxCell id="tH6fP_ZQo3fSNL9pGHCD-108" value="" style="ellipse;whiteSpace=wrap;html=1;aspect=fixed;fillColor=#FF66B3;rotation=15;" vertex="1" parent="tH6fP_ZQo3fSNL9pGHCD-106">
          <mxGeometry x="-2" y="18" width="10" height="10" as="geometry" />
        </mxCell>
        <mxCell id="tH6fP_ZQo3fSNL9pGHCD-109" value="" style="endArrow=none;html=1;rounded=0;startArrow=none;" edge="1" parent="tH6fP_ZQo3fSNL9pGHCD-106" source="tH6fP_ZQo3fSNL9pGHCD-108" target="tH6fP_ZQo3fSNL9pGHCD-107">
          <mxGeometry width="50" height="50" relative="1" as="geometry">
            <mxPoint x="-14" y="66" as="sourcePoint" />
            <mxPoint x="47" y="30" as="targetPoint" />
          </mxGeometry>
        </mxCell>
        <mxCell id="tH6fP_ZQo3fSNL9pGHCD-110" value="" style="group;rotation=30;" vertex="1" connectable="0" parent="1">
          <mxGeometry x="269" y="621" width="20" height="30" as="geometry" />
        </mxCell>
        <mxCell id="tH6fP_ZQo3fSNL9pGHCD-111" value="" style="ellipse;whiteSpace=wrap;html=1;aspect=fixed;fillColor=#FF66B3;rotation=30;" vertex="1" parent="tH6fP_ZQo3fSNL9pGHCD-110">
          <mxGeometry x="14" y="4" width="10" height="10" as="geometry" />
        </mxCell>
        <mxCell id="tH6fP_ZQo3fSNL9pGHCD-112" value="" style="ellipse;whiteSpace=wrap;html=1;aspect=fixed;fillColor=#FF66B3;rotation=30;" vertex="1" parent="tH6fP_ZQo3fSNL9pGHCD-110">
          <mxGeometry x="-4" y="16" width="10" height="10" as="geometry" />
        </mxCell>
        <mxCell id="tH6fP_ZQo3fSNL9pGHCD-113" value="" style="endArrow=none;html=1;rounded=0;startArrow=none;" edge="1" parent="tH6fP_ZQo3fSNL9pGHCD-110" source="tH6fP_ZQo3fSNL9pGHCD-112" target="tH6fP_ZQo3fSNL9pGHCD-111">
          <mxGeometry width="50" height="50" relative="1" as="geometry">
            <mxPoint x="-26" y="58" as="sourcePoint" />
            <mxPoint x="42" y="39" as="targetPoint" />
          </mxGeometry>
        </mxCell>
        <mxCell id="tH6fP_ZQo3fSNL9pGHCD-114" value="" style="group;rotation=40;" vertex="1" connectable="0" parent="1">
          <mxGeometry x="220" y="658" width="20" height="56" as="geometry" />
        </mxCell>
        <mxCell id="tH6fP_ZQo3fSNL9pGHCD-115" value="" style="ellipse;whiteSpace=wrap;html=1;aspect=fixed;fillColor=#FF66B3;rotation=40;" vertex="1" parent="tH6fP_ZQo3fSNL9pGHCD-114">
          <mxGeometry x="74" y="6" width="10" height="10" as="geometry" />
        </mxCell>
        <mxCell id="tH6fP_ZQo3fSNL9pGHCD-116" value="" style="ellipse;whiteSpace=wrap;html=1;aspect=fixed;fillColor=#FF66B3;rotation=40;" vertex="1" parent="tH6fP_ZQo3fSNL9pGHCD-114">
          <mxGeometry x="54" y="14" width="10" height="10" as="geometry" />
        </mxCell>
        <mxCell id="tH6fP_ZQo3fSNL9pGHCD-117" value="" style="endArrow=none;html=1;rounded=0;startArrow=none;" edge="1" parent="tH6fP_ZQo3fSNL9pGHCD-114" source="tH6fP_ZQo3fSNL9pGHCD-116" target="tH6fP_ZQo3fSNL9pGHCD-115">
          <mxGeometry width="50" height="50" relative="1" as="geometry">
            <mxPoint x="26" y="51" as="sourcePoint" />
            <mxPoint x="96" y="44" as="targetPoint" />
          </mxGeometry>
        </mxCell>
        <mxCell id="tH6fP_ZQo3fSNL9pGHCD-118" value="" style="group;rotation=60;" vertex="1" connectable="0" parent="tH6fP_ZQo3fSNL9pGHCD-114">
          <mxGeometry x="42" y="3" width="20" height="40" as="geometry" />
        </mxCell>
        <mxCell id="tH6fP_ZQo3fSNL9pGHCD-119" value="" style="ellipse;whiteSpace=wrap;html=1;aspect=fixed;fillColor=#FF66B3;rotation=60;" vertex="1" parent="tH6fP_ZQo3fSNL9pGHCD-118">
          <mxGeometry x="43" y="10" width="10" height="10" as="geometry" />
        </mxCell>
        <mxCell id="tH6fP_ZQo3fSNL9pGHCD-120" value="" style="ellipse;whiteSpace=wrap;html=1;aspect=fixed;fillColor=#FF66B3;rotation=60;" vertex="1" parent="tH6fP_ZQo3fSNL9pGHCD-118">
          <mxGeometry x="21" y="11" width="10" height="10" as="geometry" />
        </mxCell>
        <mxCell id="tH6fP_ZQo3fSNL9pGHCD-121" value="" style="endArrow=none;html=1;rounded=0;startArrow=none;" edge="1" parent="tH6fP_ZQo3fSNL9pGHCD-118">
          <mxGeometry width="50" height="50" relative="1" as="geometry">
            <mxPoint x="30.999950434598986" y="14.977736766807084" as="sourcePoint" />
            <mxPoint x="43.000003582023055" y="14.994015021170298" as="targetPoint" />
          </mxGeometry>
        </mxCell>
        <mxCell id="tH6fP_ZQo3fSNL9pGHCD-122" value="" style="group;rotation=135;" vertex="1" connectable="0" parent="tH6fP_ZQo3fSNL9pGHCD-118">
          <mxGeometry x="-11" y="10" width="20" height="30" as="geometry" />
        </mxCell>
        <mxCell id="tH6fP_ZQo3fSNL9pGHCD-123" value="" style="ellipse;whiteSpace=wrap;html=1;aspect=fixed;fillColor=#FF66B3;rotation=45;" vertex="1" parent="tH6fP_ZQo3fSNL9pGHCD-122">
          <mxGeometry x="49" y="7" width="10" height="10" as="geometry" />
        </mxCell>
        <mxCell id="tH6fP_ZQo3fSNL9pGHCD-124" value="" style="ellipse;whiteSpace=wrap;html=1;aspect=fixed;fillColor=#FF66B3;rotation=45;" vertex="1" parent="tH6fP_ZQo3fSNL9pGHCD-122">
          <mxGeometry x="26" y="13" width="10" height="10" as="geometry" />
        </mxCell>
        <mxCell id="tH6fP_ZQo3fSNL9pGHCD-125" value="" style="endArrow=none;html=1;rounded=0;startArrow=none;" edge="1" parent="tH6fP_ZQo3fSNL9pGHCD-122" target="tH6fP_ZQo3fSNL9pGHCD-123">
          <mxGeometry width="50" height="50" relative="1" as="geometry">
            <mxPoint x="36.78336940214399" y="16.54419192108662" as="sourcePoint" />
            <mxPoint x="67" y="46" as="targetPoint" />
          </mxGeometry>
        </mxCell>
        <mxCell id="tH6fP_ZQo3fSNL9pGHCD-126" value="" style="group;rotation=120;" vertex="1" connectable="0" parent="tH6fP_ZQo3fSNL9pGHCD-114">
          <mxGeometry x="64" y="-18" width="20" height="30" as="geometry" />
        </mxCell>
        <mxCell id="tH6fP_ZQo3fSNL9pGHCD-127" value="" style="ellipse;whiteSpace=wrap;html=1;aspect=fixed;fillColor=#FF66B3;rotation=30;" vertex="1" parent="tH6fP_ZQo3fSNL9pGHCD-126">
          <mxGeometry x="15" y="4" width="10" height="10" as="geometry" />
        </mxCell>
        <mxCell id="tH6fP_ZQo3fSNL9pGHCD-128" value="" style="ellipse;whiteSpace=wrap;html=1;aspect=fixed;fillColor=#FF66B3;rotation=30;" vertex="1" parent="tH6fP_ZQo3fSNL9pGHCD-126">
          <mxGeometry x="-5" y="16" width="10" height="10" as="geometry" />
        </mxCell>
        <mxCell id="tH6fP_ZQo3fSNL9pGHCD-129" value="" style="endArrow=none;html=1;rounded=0;startArrow=none;" edge="1" parent="tH6fP_ZQo3fSNL9pGHCD-126" source="tH6fP_ZQo3fSNL9pGHCD-128" target="tH6fP_ZQo3fSNL9pGHCD-127">
          <mxGeometry width="50" height="50" relative="1" as="geometry">
            <mxPoint x="-26" y="58" as="sourcePoint" />
            <mxPoint x="41" y="39" as="targetPoint" />
          </mxGeometry>
        </mxCell>
        <mxCell id="tH6fP_ZQo3fSNL9pGHCD-130" value="" style="group;rotation=90;" vertex="1" connectable="0" parent="1">
          <mxGeometry x="219" y="535" width="20" height="30" as="geometry" />
        </mxCell>
        <mxCell id="tH6fP_ZQo3fSNL9pGHCD-131" value="" style="ellipse;whiteSpace=wrap;html=1;aspect=fixed;fillColor=#FF66B3;rotation=0;" vertex="1" parent="tH6fP_ZQo3fSNL9pGHCD-130">
          <mxGeometry x="11" width="10" height="10" as="geometry" />
        </mxCell>
        <mxCell id="tH6fP_ZQo3fSNL9pGHCD-132" value="" style="ellipse;whiteSpace=wrap;html=1;aspect=fixed;fillColor=#FF66B3;rotation=0;" vertex="1" parent="tH6fP_ZQo3fSNL9pGHCD-130">
          <mxGeometry x="-1" y="20" width="10" height="10" as="geometry" />
        </mxCell>
        <mxCell id="tH6fP_ZQo3fSNL9pGHCD-133" value="" style="endArrow=none;html=1;rounded=0;startArrow=none;" edge="1" parent="tH6fP_ZQo3fSNL9pGHCD-130" source="tH6fP_ZQo3fSNL9pGHCD-132" target="tH6fP_ZQo3fSNL9pGHCD-131">
          <mxGeometry width="50" height="50" relative="1" as="geometry">
            <mxPoint y="70" as="sourcePoint" />
            <mxPoint x="49" y="20" as="targetPoint" />
          </mxGeometry>
        </mxCell>
        <mxCell id="tH6fP_ZQo3fSNL9pGHCD-134" value="t=0.15s" style="text;html=1;align=center;verticalAlign=middle;resizable=0;points=[];autosize=1;strokeColor=none;fillColor=none;" vertex="1" parent="1">
          <mxGeometry x="240" y="734" width="60" height="30" as="geometry" />
        </mxCell>
      </root>
    </mxGraphModel>
  </diagram>
</mxfile>
